<?xml version="1.0" standalone="no"?>
<!DOCTYPE svg PUBLIC "-//W3C//DTD SVG 20010904//EN"
 "http://www.w3.org/TR/2001/REC-SVG-20010904/DTD/svg10.dtd">
<svg version="1.0" xmlns="http://www.w3.org/2000/svg"
 width="512.000000pt" height="512.000000pt" viewBox="0 0 512.000000 512.000000"
 preserveAspectRatio="xMidYMid meet">

<g transform="translate(0.000000,512.000000) scale(0.100000,-0.100000)"
fill="#000000" stroke="none">
<path d="M2345 4894 c-391 -69 -717 -316 -895 -679 -70 -142 -106 -266 -122
-427 -50 -497 227 -996 677 -1218 188 -93 348 -130 555 -130 480 0 896 260
1110 695 171 346 171 734 0 1080 -180 365 -506 611 -900 679 -114 20 -314 20
-425 0z m430 -168 c429 -91 758 -427 840 -859 8 -43 15 -85 15 -93 0 -12 -54
-14 -325 -14 l-325 0 -6 28 c-26 106 -123 221 -231 274 -65 32 -73 33 -183 33
-110 0 -118 -1 -183 -33 -108 -53 -205 -168 -231 -274 l-6 -28 -326 0 -326 0
7 53 c44 326 241 621 526 790 110 65 266 118 402 137 82 12 265 5 352 -14z
m-134 -802 c67 -20 148 -97 167 -160 28 -96 10 -191 -51 -260 -59 -67 -107
-89 -197 -89 -90 0 -138 22 -197 89 -88 100 -86 246 4 346 73 81 165 106 274
74z m-495 -361 c14 -57 68 -148 115 -194 27 -26 79 -63 116 -81 65 -32 73 -33
183 -33 111 0 118 1 183 33 109 54 205 168 231 275 l6 27 326 0 326 0 -7 -52
c-44 -327 -241 -622 -526 -791 -219 -129 -504 -176 -754 -123 -430 90 -758
426 -840 859 -8 43 -15 85 -15 93 0 12 54 14 325 14 l325 0 6 -27z"/>
<path d="M1025 2665 c-503 -92 -893 -472 -1001 -977 -25 -115 -25 -371 0 -486
94 -439 405 -791 821 -930 213 -71 483 -82 693 -27 470 121 810 476 914 955
28 124 30 345 4 473 -48 247 -166 467 -346 647 -185 186 -404 300 -660 344
-112 19 -324 20 -425 1z m431 -169 c369 -79 663 -337 794 -695 24 -66 60 -223
60 -262 0 -5 -146 -9 -324 -9 l-323 0 -22 59 c-40 109 -124 200 -231 249 -72
33 -211 42 -292 18 -126 -36 -247 -152 -285 -272 l-17 -54 -323 0 -323 0 0 23
c0 12 9 63 19 112 89 430 444 769 881 840 102 17 285 13 386 -9z m-123 -806
c183 -69 226 -315 76 -443 -110 -95 -266 -85 -363 23 -50 56 -68 102 -68 175
0 73 21 128 70 178 81 84 178 107 285 67z m-500 -384 c38 -120 159 -236 285
-272 81 -24 220 -15 292 18 107 49 191 140 231 249 l22 59 324 0 324 0 -7 -47
c-44 -317 -216 -591 -477 -763 -104 -69 -203 -112 -336 -147 -80 -21 -120 -26
-241 -26 -153 -1 -212 7 -345 50 -385 124 -681 478 -730 876 l-7 57 324 0 324
0 17 -54z"/>
<path d="M3665 2664 c-173 -31 -356 -107 -501 -210 -149 -104 -308 -292 -392
-459 -44 -88 -89 -222 -108 -322 -24 -119 -24 -339 -1 -456 70 -352 284 -655
592 -839 355 -212 829 -225 1195 -32 334 177 560 476 647 856 21 92 24 375 5
463 -60 277 -179 495 -371 678 -174 166 -400 281 -635 322 -110 19 -322 18
-431 -1z m375 -159 c179 -27 344 -97 492 -208 220 -166 379 -439 413 -710 l7
-57 -324 0 -324 0 -17 54 c-38 120 -159 236 -285 272 -81 24 -220 15 -292 -18
-107 -49 -191 -140 -231 -249 l-22 -59 -324 0 -324 0 7 53 c48 377 316 722
667 858 193 74 363 94 557 64z m-45 -823 c52 -27 110 -87 131 -137 20 -49 21
-150 1 -197 -20 -49 -82 -115 -130 -139 -89 -46 -207 -31 -286 38 -149 127
-108 370 75 443 61 25 152 22 209 -8z m-520 -371 c35 -107 120 -203 225 -253
55 -27 79 -33 156 -36 111 -5 175 11 262 67 73 48 144 138 169 217 l17 54 324
0 324 0 -7 -57 c-49 -398 -345 -752 -730 -876 -133 -43 -192 -51 -345 -50
-121 0 -161 5 -241 26 -366 96 -636 342 -763 695 -21 60 -56 216 -56 253 0 5
146 9 324 9 l324 0 17 -49z"/>
</g>
</svg>
