<?xml version="1.0" standalone="no"?>
<!DOCTYPE svg PUBLIC "-//W3C//DTD SVG 20010904//EN"
 "http://www.w3.org/TR/2001/REC-SVG-20010904/DTD/svg10.dtd">
<svg version="1.0" xmlns="http://www.w3.org/2000/svg"
 width="512.000000pt" height="512.000000pt" viewBox="0 0 512.000000 512.000000"
 preserveAspectRatio="xMidYMid meet">

<g transform="translate(0.000000,512.000000) scale(0.100000,-0.100000)"
fill="#000000" stroke="none">
<path d="M2340 4709 c-489 -49 -951 -270 -1305 -624 -333 -332 -533 -728 -612
-1210 -25 -153 -25 -477 0 -630 79 -482 279 -878 612 -1210 216 -216 450 -370
725 -480 858 -342 1838 -102 2437 599 266 311 431 671 500 1091 25 153 25 477
0 630 -79 481 -279 877 -612 1210 -460 462 -1095 689 -1745 624z m530 -174
c711 -117 1293 -587 1555 -1254 36 -93 105 -343 105 -381 0 -20 -10 -20 -491
-20 l-491 0 -6 22 c-12 46 -101 216 -144 273 -264 356 -726 509 -1143 378
-213 -67 -401 -201 -533 -378 -43 -57 -132 -227 -144 -273 l-6 -22 -491 0
c-477 0 -491 1 -491 19 0 39 69 289 105 381 182 461 528 844 965 1065 174 88
443 172 625 194 50 6 104 13 120 15 63 9 374 -4 465 -19z m-157 -1110 c308
-54 576 -281 677 -577 16 -45 39 -93 51 -105 l21 -23 543 0 543 0 6 -22 c7
-30 8 -246 0 -275 l-6 -23 -550 -2 -551 -3 -14 -22 c-8 -13 -28 -59 -43 -104
-83 -240 -293 -452 -530 -535 -200 -70 -399 -70 -599 -1 -231 81 -446 295
-526 526 -37 105 -44 117 -72 130 -16 8 -188 11 -557 11 l-534 0 -6 23 c-8 29
-8 245 0 275 l6 22 534 0 c369 0 541 3 557 11 28 13 35 25 72 130 78 225 280
431 510 520 143 56 310 72 468 44z m-1135 -1207 c12 -46 102 -216 144 -273
163 -219 406 -367 673 -410 383 -63 767 95 1003 410 42 57 132 227 144 273 l6
22 491 0 c481 0 491 0 491 -20 0 -38 -69 -288 -106 -381 -100 -255 -234 -463
-427 -665 -299 -313 -684 -514 -1132 -591 -139 -23 -471 -23 -610 0 -721 124
-1294 586 -1560 1257 -36 91 -105 341 -105 381 0 18 14 19 491 19 l491 0 6
-22z"/>
<path d="M2420 3266 c-155 -34 -256 -89 -370 -205 -67 -67 -95 -105 -128 -171
-62 -125 -77 -192 -76 -340 1 -107 5 -137 27 -205 38 -115 90 -199 182 -290
93 -93 160 -135 282 -178 80 -28 100 -31 213 -31 148 -1 216 14 338 76 251
125 409 405 389 689 -13 177 -81 323 -212 454 -139 139 -283 203 -475 210 -67
3 -128 -1 -170 -9z m321 -178 c149 -55 254 -147 319 -282 151 -314 -3 -668
-340 -782 -81 -28 -254 -25 -334 4 -179 65 -301 191 -362 372 -14 40 -19 84
-19 160 0 158 50 282 156 390 80 81 180 136 294 161 70 15 213 3 286 -23z"/>
</g>
</svg>
