<?xml version="1.0" standalone="no"?>
<!DOCTYPE svg PUBLIC "-//W3C//DTD SVG 20010904//EN"
 "http://www.w3.org/TR/2001/REC-SVG-20010904/DTD/svg10.dtd">
<svg version="1.0" xmlns="http://www.w3.org/2000/svg"
 width="512.000000pt" height="512.000000pt" viewBox="0 0 512.000000 512.000000"
 preserveAspectRatio="xMidYMid meet">

<g transform="translate(0.000000,512.000000) scale(0.100000,-0.100000)"
fill="#000000" stroke="none">
<path d="M1156 5110 c-227 -39 -437 -194 -540 -401 -68 -134 -80 -206 -81
-449 l0 -205 108 -3 107 -3 0 -1489 0 -1489 -107 -3 -108 -3 0 -205 c1 -244
13 -315 82 -453 37 -74 63 -108 132 -178 111 -111 219 -173 366 -211 77 -20
2817 -19 2894 1 218 56 399 200 495 394 69 140 79 196 80 442 l1 210 -107 3
-108 3 0 1489 0 1489 108 3 107 3 -1 210 c-1 246 -11 302 -80 442 -75 153
-225 293 -374 353 -144 58 -34 54 -1540 56 -762 1 -1407 -2 -1434 -6z m2845
-227 c226 -77 369 -277 369 -517 l0 -96 -1810 0 -1810 0 0 93 c0 57 6 115 16
148 62 208 223 353 432 389 26 4 652 7 1392 6 l1345 -1 66 -22z m159 -2323 l0
-1490 -1600 0 -1600 0 0 1490 0 1490 1600 0 1600 0 0 -1490z m-2772 -2027 l-3
-318 -98 2 c-170 3 -297 58 -400 173 -93 103 -137 222 -137 367 l0 93 320 0
320 0 -2 -317z m2132 -3 l0 -320 -960 0 -960 0 0 320 0 320 960 0 960 0 0
-320z m850 224 c0 -192 -86 -353 -245 -456 -83 -54 -172 -79 -292 -81 l-98 -2
-3 318 -2 317 320 0 320 0 0 -96z"/>
<path d="M1739 4661 c-43 -43 -41 -101 5 -147 l34 -34 777 0 c707 0 779 2 805
17 58 34 68 116 21 164 l-29 29 -792 0 -792 0 -29 -29z"/>
<path d="M1134 3936 c-69 -30 -64 81 -64 -1377 0 -1305 0 -1317 20 -1342 30
-38 80 -52 123 -33 72 30 67 -69 67 1376 0 1443 5 1347 -65 1376 -41 17 -42
17 -81 0z"/>
<path d="M3903 3935 c-67 -29 -63 63 -63 -1375 0 -1445 -5 -1346 67 -1376 43
-19 93 -5 123 33 20 25 20 37 20 1342 0 1462 5 1347 -66 1377 -40 17 -41 17
-81 -1z"/>
<path d="M2495 3689 c-286 -48 -583 -332 -731 -698 -96 -237 -138 -449 -138
-701 0 -198 20 -294 89 -435 80 -163 193 -273 371 -361 247 -121 588 -138 863
-42 436 152 617 530 526 1099 -56 347 -193 648 -393 861 -191 202 -412 307
-587 277z m195 -244 c229 -115 405 -344 509 -662 39 -117 76 -311 83 -430 l4
-63 -50 -16 c-244 -80 -483 -261 -564 -427 -31 -63 -61 -174 -62 -226 l0 -24
-97 6 c-274 17 -499 141 -597 327 -38 72 -76 200 -76 255 l0 32 75 5 c187 12
362 169 476 427 122 276 103 524 -53 688 -17 17 -27 36 -24 41 10 16 94 63
150 83 70 27 154 21 226 -16z m-508 -252 c103 -110 102 -276 -2 -490 -81 -166
-198 -273 -302 -273 l-36 0 5 43 c32 271 150 578 281 730 20 23 24 22 54 -10z
m1073 -1165 c-21 -74 -82 -176 -142 -234 -62 -62 -185 -134 -255 -150 -35 -8
-36 5 -7 81 36 97 146 199 304 282 93 49 109 52 100 21z"/>
<path d="M1864 621 c-44 -27 -60 -77 -41 -124 26 -61 45 -67 199 -67 80 0 147
5 162 11 60 28 71 122 20 170 -24 23 -33 24 -167 27 -127 2 -145 1 -173 -17z"/>
<path d="M2398 623 c-56 -35 -66 -117 -19 -164 l29 -29 152 0 152 0 29 29 c47
48 37 130 -21 164 -41 24 -283 24 -322 0z"/>
<path d="M2945 631 c-33 -14 -56 -47 -62 -90 -5 -36 -2 -44 30 -76 l35 -35
145 0 c130 0 147 2 170 20 38 30 52 80 33 123 -23 57 -55 67 -203 66 -70 0
-137 -4 -148 -8z"/>
</g>
</svg>
