<?xml version="1.0" standalone="no"?>
<!DOCTYPE svg PUBLIC "-//W3C//DTD SVG 20010904//EN"
 "http://www.w3.org/TR/2001/REC-SVG-20010904/DTD/svg10.dtd">
<svg version="1.0" xmlns="http://www.w3.org/2000/svg"
 width="512.000000pt" height="512.000000pt" viewBox="0 0 512.000000 512.000000"
 preserveAspectRatio="xMidYMid meet">

<g transform="translate(0.000000,512.000000) scale(0.100000,-0.100000)"
fill="#000000" stroke="none">
<path d="M2365 5023 c-27 -10 -142 -81 -255 -158 l-205 -140 -280 -5 -280 -5
-67 -32 c-112 -53 -204 -163 -224 -270 -6 -31 -11 -34 -78 -53 -194 -56 -270
-113 -335 -250 -23 -48 -26 -69 -27 -159 l-1 -104 -109 -74 c-136 -92 -177
-132 -215 -208 -54 -110 -58 -233 -10 -339 11 -25 186 -290 390 -589 l370
-544 3 -694 3 -695 37 -76 c45 -91 104 -148 196 -191 61 -28 78 -32 189 -35
l122 -4 35 -54 c74 -111 193 -176 326 -178 59 -1 103 7 210 37 l135 39 54 -52
c29 -29 78 -64 110 -79 50 -23 68 -26 167 -26 104 0 114 2 170 31 32 17 140
87 239 155 l180 124 280 5 280 5 59 28 c115 53 190 136 223 246 9 31 18 58 19
59 1 2 45 16 98 32 52 15 114 39 138 53 65 38 125 104 161 177 29 59 32 73 33
168 l1 103 109 75 c137 94 178 134 215 210 52 105 56 235 11 337 -11 25 -187
290 -391 590 l-370 544 -3 694 -3 695 -37 76 c-45 91 -104 148 -196 191 -62
29 -77 32 -194 35 l-127 4 -12 31 c-19 46 -108 130 -169 160 -66 32 -160 51
-215 43 -22 -3 -99 -22 -171 -42 l-131 -37 -43 47 c-25 27 -70 59 -108 78 -58
29 -77 33 -161 35 -73 3 -108 -1 -146 -14z m233 -163 c23 -10 42 -23 42 -27 0
-13 -382 -115 -419 -111 -33 3 -32 4 65 70 55 37 110 71 124 77 43 17 141 12
188 -9z m672 -90 c20 -10 42 -26 49 -34 12 -15 -9 -16 -220 -15 l-234 1 65 19
c217 65 262 69 340 29z m484 -222 c55 -16 138 -99 154 -154 18 -60 18 -3608 0
-3668 -16 -55 -99 -138 -154 -154 -60 -17 -2328 -17 -2388 0 -55 16 -138 99
-154 154 -18 60 -18 3608 0 3668 15 51 99 137 148 153 53 17 2338 17 2394 1z
m-2715 -965 c0 -346 -2 -623 -4 -618 -3 6 -63 219 -135 475 -87 313 -130 482
-130 515 0 66 37 144 85 181 31 23 145 71 178 73 4 1 7 -281 6 -626z m-369 92
c0 -3 79 -287 176 -631 96 -344 174 -627 172 -629 -4 -4 -569 828 -592 873
-27 52 -26 144 2 197 31 58 39 66 132 133 76 55 110 72 110 57z m3787 -1485
c121 -179 228 -340 238 -359 39 -77 16 -197 -49 -263 -55 -55 -196 -143 -196
-123 0 3 -79 286 -175 629 -96 343 -175 627 -175 632 0 8 43 -54 357 -516z
m-237 -511 c86 -309 130 -483 130 -515 0 -61 -36 -140 -78 -176 -30 -25 -104
-57 -164 -72 l-28 -6 1 627 c0 346 2 624 4 618 3 -5 63 -220 135 -476z m-2080
-1315 c-141 -43 -225 -48 -286 -17 -22 12 -46 29 -53 37 -12 15 9 16 220 15
l234 0 -115 -35z m785 28 c-32 -28 -179 -125 -209 -137 -50 -21 -142 -19 -193
5 -24 10 -43 23 -43 27 0 12 359 110 410 112 24 0 40 -3 35 -7z"/>
<path d="M1360 4320 l0 -80 80 0 80 0 0 80 0 80 -80 0 -80 0 0 -80z"/>
<path d="M3600 4320 l0 -80 80 0 80 0 0 80 0 80 -80 0 -80 0 0 -80z"/>
<path d="M2393 3505 c-201 -36 -365 -124 -513 -274 -129 -130 -212 -278 -257
-457 -24 -95 -24 -333 0 -428 45 -179 128 -327 257 -457 177 -180 385 -273
635 -286 277 -14 519 81 720 282 137 137 216 276 262 461 24 95 24 333 0 428
-25 99 -72 210 -125 296 -62 102 -206 243 -311 308 -196 120 -445 168 -668
127z m357 -168 c100 -28 168 -57 243 -107 183 -119 310 -308 352 -522 l13 -68
-244 0 -243 0 -20 46 c-32 71 -75 118 -143 155 -58 31 -70 34 -148 34 -73 0
-92 -4 -137 -28 -69 -36 -120 -88 -150 -154 l-24 -53 -244 0 -243 0 14 68 c7
37 21 92 32 123 91 259 320 455 602 515 80 17 262 12 340 -9z m-127 -631 c103
-43 128 -177 48 -257 -65 -65 -157 -65 -222 0 -124 123 13 325 174 257z m-350
-279 c30 -66 81 -118 150 -154 45 -24 64 -28 137 -28 73 0 92 4 137 28 69 36
120 88 150 154 l24 53 244 0 243 0 -13 -67 c-42 -215 -169 -404 -352 -523
-313 -205 -732 -160 -997 106 -120 120 -188 249 -220 417 l-14 67 243 0 244 0
24 -53z"/>
<path d="M1360 800 l0 -80 80 0 80 0 0 80 0 80 -80 0 -80 0 0 -80z"/>
<path d="M3600 800 l0 -80 80 0 80 0 0 80 0 80 -80 0 -80 0 0 -80z"/>
</g>
</svg>
